<svg width="64" height="64" xmlns="http://www.w3.org/2000/svg" role="img">
 <title>Sketchfab</title>

 <g>
  <title>Layer 1</title>
  <g id="svg_5" stroke="null">
   <rect fill="#482816" x="8" y="8" width="48" height="48" id="svg_14" stroke="null"/>
   <rect fill="#46673D" x="8" y="8" width="48" height="11.2" id="svg_12" stroke="null"/>
   <g id="svg_1" stroke="null">
    <path id="svg_2" d="m26.27179,23.39498c0,-0.94033 0.77418,-1.7018 1.72832,-1.7018c1.13772,0 1.96384,1.06725 1.66672,2.14658c-0.11111,0.40611 -0.05074,0.84001 0.16789,1.20262c0.48312,0.80257 1.30924,1.29689 2.38779,1.30295c1.06406,-0.00483 1.89864,-0.49313 2.38779,-1.30295c0.2186,-0.36139 0.27777,-0.79528 0.16789,-1.20262c-0.29952,-1.07813 0.52417,-2.14658 1.66432,-2.14658c0.95415,0 1.72832,0.76144 1.72832,1.7018c0,0.81585 -0.58215,1.49149 -1.34909,1.66191c-0.38889,0.08582 -0.72466,0.32512 -0.93001,0.66234c-0.74038,1.22921 0.23309,2.31702 1.12443,3.41203c-1.46261,0.67928 -3.04965,1.02253 -4.79485,1.02253c-1.77301,0 -3.34676,-0.3348 -4.80091,-1.01527c0.9034,-1.11197 1.8781,-2.17922 1.13049,-3.42051c-0.20532,-0.33723 -0.53989,-0.57652 -0.93001,-0.66234c-0.76575,-0.16921 -1.34909,-0.84486 -1.34909,-1.66071l-0.00006,-0.00003l0.00006,0.00006l0,-0.00001zm20.4428,21.86709c0,3.00352 -2.43367,5.43898 -5.435,5.43898s-5.435,-2.43546 -5.435,-5.43898s2.43367,-5.43898 5.435,-5.43898s5.435,2.43546 5.435,5.43898zm-2.60396,-1.06605l-0.8406,-0.84123l-2.55564,2.62157l-1.19692,-1.13613l-0.8406,0.84243l2.03873,1.97857l3.39508,-3.46524l0,0.00003l-0.00003,0l-0.00002,0zm-10.68157,1.06605c0,-4.33183 3.52188,-7.8563 7.85056,-7.8563l0.20654,0.01088c-0.215,-0.21151 -0.38046,-0.48105 -0.42754,-0.8255c-0.11111,-0.81827 0.34543,-1.38634 0.92515,-1.61113l2.69336,-1.04669c0.6534,-0.25383 0.97589,-0.98263 0.7174,-1.62686c-0.25726,-0.64424 -0.99641,-0.9609 -1.65104,-0.70586l-2.77064,1.0769c-0.39734,0.1535 -0.88649,0.04349 -1.11841,-0.48468c-0.22343,-0.51126 -0.47829,-0.98629 -0.74883,-1.43589c-2.07013,1.19779 -4.37214,1.81418 -6.88432,1.81418c-2.55204,0 -4.82386,-0.60191 -6.88795,-1.80816c-0.26209,0.4339 -0.50726,0.89201 -0.72586,1.38511c-0.27414,0.62124 -0.779,0.66717 -1.13652,0.52817l-2.77064,-1.0757c-0.65463,-0.25383 -1.39378,0.06163 -1.65104,0.70586c-0.25846,0.64424 0.0628,1.37303 0.7174,1.62686l2.69336,1.04669c0.59906,0.23207 1.03266,0.83881 0.9336,1.53985c-0.1268,0.91617 -0.82489,1.34282 -1.49038,1.34282l-2.90107,0c-0.70415,0 -1.27421,0.56081 -1.27421,1.2534s0.57006,1.2534 1.27421,1.2534l2.88296,0c0.69086,0 1.39861,0.4496 1.52784,1.27756c0.13526,0.8799 -0.27537,1.48544 -0.90703,1.76706l-2.92282,1.30295c-0.64132,0.28525 -0.92515,1.02858 -0.63529,1.65951s1.04352,0.91012 1.68484,0.62607l3.0931,-1.37789c0.372,-0.16559 0.83095,-0.12812 1.08821,0.31306c1.25852,2.16954 3.79482,4.36085 7.4073,4.76333c1.01815,-0.11361 1.9397,-0.38072 2.78393,-0.73851c-0.98555,-1.3126 -1.57615,-2.93704 -1.57615,-4.7005l0,0.00003l0,-0.00003l-0.00002,0.00001z" fill="#8CD79F" stroke="null"/>
   </g>
  </g>
 </g>
</svg>