<svg width="16" height="16" xmlns="http://www.w3.org/2000/svg" role="img">
 <title>Sketchfab</title>

 <g>
  <title>Layer 1</title>
  <g stroke="null" id="svg_5">
   <rect stroke="null" fill="#482816" x="0" y="0" width="16" height="16.00784" id="svg_14"/>
   <rect stroke="null" fill="#46673D" x="0" y="0" width="16" height="3.73516" id="svg_12"/>
   <g stroke="null" id="svg_1">
    <path stroke="null" id="svg_2" d="m6.09252,5.13584c0,-0.3137 0.25814,-0.56773 0.57629,-0.56773c0.37936,0 0.65482,0.35604 0.55575,0.71611c-0.03705,0.13548 -0.01692,0.28023 0.05598,0.4012c0.16109,0.26774 0.43655,0.43265 0.79618,0.43467c0.3548,-0.00161 0.63308,-0.16451 0.79618,-0.43467c0.07289,-0.12056 0.09262,-0.26531 0.05598,-0.4012c-0.09987,-0.35967 0.17478,-0.71611 0.55495,-0.71611c0.31815,0 0.57629,0.25402 0.57629,0.56773c0,0.27217 -0.19411,0.49757 -0.44984,0.55442c-0.12967,0.02863 -0.24163,0.10846 -0.3101,0.22096c-0.24687,0.41007 0.07772,0.77297 0.37493,1.13827c-0.48769,0.22661 -1.01687,0.34112 -1.59879,0.34112c-0.59119,0 -1.11594,-0.11169 -1.60081,-0.3387c0.30123,-0.37096 0.62623,-0.727 0.37695,-1.1411c-0.06846,-0.1125 -0.18002,-0.19233 -0.3101,-0.22096c-0.25533,-0.05645 -0.44984,-0.28185 -0.44984,-0.55402l-0.00002,-0.00001zm6.81642,7.29497c0,1.00199 -0.81148,1.81447 -1.81224,1.81447s-1.81224,-0.81248 -1.81224,-1.81447s0.81148,-1.81447 1.81224,-1.81447s1.81224,0.81248 1.81224,1.81447zm-0.86826,-0.35564l-0.28029,-0.28064l-0.85215,0.87457l-0.3991,-0.37902l-0.28029,0.28104l0.67979,0.66006l1.13205,-1.15602l0,0.00001zm-3.56165,0.35564c0,-1.44512 1.17433,-2.6209 2.61768,-2.6209l0.06887,0.00363c-0.07169,-0.07056 -0.12686,-0.16048 -0.14256,-0.27539c-0.03705,-0.27298 0.11518,-0.46249 0.30848,-0.53748l0.89807,-0.34918c0.21787,-0.08468 0.3254,-0.32781 0.23921,-0.54273c-0.08578,-0.21492 -0.33224,-0.32056 -0.55052,-0.23548l-0.92384,0.35926c-0.13249,0.05121 -0.29559,0.01451 -0.37292,-0.16169c-0.0745,-0.17056 -0.15948,-0.32903 -0.24969,-0.47902c-0.69026,0.39959 -1.45784,0.60522 -2.2955,0.60522c-0.85095,0 -1.60846,-0.2008 -2.29671,-0.60321c-0.08739,0.14475 -0.16914,0.29758 -0.24203,0.46208c-0.09141,0.20725 -0.25975,0.22257 -0.37896,0.1762l-0.92384,-0.35886c-0.21828,-0.08468 -0.46474,0.02056 -0.55052,0.23548c-0.08618,0.21492 0.02094,0.45805 0.23921,0.54273l0.89807,0.34918c0.19975,0.07742 0.34433,0.27983 0.3113,0.5137c-0.04228,0.30564 -0.27505,0.44797 -0.49695,0.44797l-0.96733,0c-0.23479,0 -0.42487,0.18709 -0.42487,0.41814s0.19008,0.41814 0.42487,0.41814l0.96129,0c0.23036,0 0.46635,0.14999 0.50944,0.4262c0.0451,0.29354 -0.09182,0.49555 -0.30244,0.5895l-0.97458,0.43467c-0.21384,0.09516 -0.30848,0.34314 -0.21183,0.55362s0.34795,0.30362 0.56179,0.20886l1.03136,-0.45967c0.12404,-0.05524 0.27707,-0.04274 0.36285,0.10444c0.41964,0.72377 1.26534,1.4548 2.46988,1.58907c0.33949,-0.0379 0.64677,-0.12701 0.92827,-0.24637c-0.32862,-0.43789 -0.52555,-0.97981 -0.52555,-1.56811l0,0.00001z" fill="#8CD79F"/>
   </g>
  </g>
 </g>
</svg>