<svg width="16" height="16"  xmlns="http://www.w3.org/2000/svg" role="img"><rect x="0" y="0" width="1" height="1" fill="rgba(0, 0, 0, 0)"></rect><rect x="1" y="0" width="1" height="1" fill="rgba(0, 0, 0, 0)"></rect><rect x="2" y="0" width="1" height="1" fill="rgba(0, 0, 0, 0)"></rect><rect x="3" y="0" width="1" height="1" fill="rgba(0, 0, 0, 0)"></rect><rect x="4" y="0" width="1" height="1" fill="rgba(0, 0, 0, 0)"></rect><rect x="5" y="0" width="1" height="1" fill="rgba(0, 0, 0, 0)"></rect><rect x="6" y="0" width="1" height="1" fill="rgba(51, 47, 47, 70)"></rect><rect x="7" y="0" width="1" height="1" fill="rgba(117, 104, 79, 215)"></rect><rect x="8" y="0" width="1" height="1" fill="rgba(118, 105, 81, 216)"></rect><rect x="9" y="0" width="1" height="1" fill="rgba(54, 50, 47, 71)"></rect><rect x="10" y="0" width="1" height="1" fill="rgba(0, 0, 0, 0)"></rect><rect x="11" y="0" width="1" height="1" fill="rgba(0, 0, 0, 0)"></rect><rect x="12" y="0" width="1" height="1" fill="rgba(0, 0, 0, 0)"></rect><rect x="13" y="0" width="1" height="1" fill="rgba(0, 0, 0, 0)"></rect><rect x="14" y="0" width="1" height="1" fill="rgba(0, 0, 0, 0)"></rect><rect x="15" y="0" width="1" height="1" fill="rgba(0, 0, 0, 0)"></rect><rect x="0" y="1" width="1" height="1" fill="rgba(0, 0, 0, 0)"></rect><rect x="1" y="1" width="1" height="1" fill="rgba(0, 0, 0, 0)"></rect><rect x="2" y="1" width="1" height="1" fill="rgba(0, 0, 0, 0)"></rect><rect x="3" y="1" width="1" height="1" fill="rgba(0, 0, 0, 0)"></rect><rect x="4" y="1" width="1" height="1" fill="rgba(69, 63, 55, 93)"></rect><rect x="5" y="1" width="1" height="1" fill="rgba(151, 114, 88, 220)"></rect><rect x="6" y="1" width="1" height="1" fill="rgba(179, 131, 94, 255)"></rect><rect x="7" y="1" width="1" height="1" fill="rgba(197, 146, 102, 255)"></rect><rect x="8" y="1" width="1" height="1" fill="rgba(196, 142, 99, 255)"></rect><rect x="9" y="1" width="1" height="1" fill="rgba(180, 132, 94, 255)"></rect><rect x="10" y="1" width="1" height="1" fill="rgba(155, 118, 89, 220)"></rect><rect x="11" y="1" width="1" height="1" fill="rgba(62, 57, 54, 94)"></rect><rect x="12" y="1" width="1" height="1" fill="rgba(0, 0, 0, 0)"></rect><rect x="13" y="1" width="1" height="1" fill="rgba(0, 0, 0, 0)"></rect><rect x="14" y="1" width="1" height="1" fill="rgba(0, 0, 0, 0)"></rect><rect x="15" y="1" width="1" height="1" fill="rgba(0, 0, 0, 0)"></rect><rect x="0" y="2" width="1" height="1" fill="rgba(0, 0, 0, 0)"></rect><rect x="1" y="2" width="1" height="1" fill="rgba(64, 64, 64, 8)"></rect><rect x="2" y="2" width="1" height="1" fill="rgba(65, 61, 57, 117)"></rect><rect x="3" y="2" width="1" height="1" fill="rgba(137, 106, 81, 236)"></rect><rect x="4" y="2" width="1" height="1" fill="rgba(204, 140, 98, 255)"></rect><rect x="5" y="2" width="1" height="1" fill="rgba(216, 148, 101, 255)"></rect><rect x="6" y="2" width="1" height="1" fill="rgba(197, 144, 102, 255)"></rect><rect x="7" y="2" width="1" height="1" fill="rgba(179, 127, 91, 255)"></rect><rect x="8" y="2" width="1" height="1" fill="rgba(169, 111, 79, 255)"></rect><rect x="9" y="2" width="1" height="1" fill="rgba(189, 134, 94, 255)"></rect><rect x="10" y="2" width="1" height="1" fill="rgba(219, 153, 104, 255)"></rect><rect x="11" y="2" width="1" height="1" fill="rgba(212, 151, 106, 255)"></rect><rect x="12" y="2" width="1" height="1" fill="rgba(135, 104, 79, 236)"></rect><rect x="13" y="2" width="1" height="1" fill="rgba(71, 67, 58, 118)"></rect><rect x="14" y="2" width="1" height="1" fill="rgba(64, 64, 64, 8)"></rect><rect x="15" y="2" width="1" height="1" fill="rgba(0, 0, 0, 0)"></rect><rect x="0" y="3" width="1" height="1" fill="rgba(31, 28, 25, 100)"></rect><rect x="1" y="3" width="1" height="1" fill="rgba(98, 88, 69, 255)"></rect><rect x="2" y="3" width="1" height="1" fill="rgba(149, 129, 99, 255)"></rect><rect x="3" y="3" width="1" height="1" fill="rgba(229, 169, 119, 255)"></rect><rect x="4" y="3" width="1" height="1" fill="rgba(199, 137, 95, 255)"></rect><rect x="5" y="3" width="1" height="1" fill="rgba(144, 100, 73, 255)"></rect><rect x="6" y="3" width="1" height="1" fill="rgba(174, 126, 90, 255)"></rect><rect x="7" y="3" width="1" height="1" fill="rgba(170, 123, 89, 255)"></rect><rect x="8" y="3" width="1" height="1" fill="rgba(172, 124, 91, 255)"></rect><rect x="9" y="3" width="1" height="1" fill="rgba(172, 122, 88, 255)"></rect><rect x="10" y="3" width="1" height="1" fill="rgba(136, 89, 65, 255)"></rect><rect x="11" y="3" width="1" height="1" fill="rgba(213, 148, 103, 255)"></rect><rect x="12" y="3" width="1" height="1" fill="rgba(234, 173, 120, 255)"></rect><rect x="13" y="3" width="1" height="1" fill="rgba(156, 136, 104, 255)"></rect><rect x="14" y="3" width="1" height="1" fill="rgba(103, 90, 70, 255)"></rect><rect x="15" y="3" width="1" height="1" fill="rgba(28, 25, 23, 101)"></rect><rect x="0" y="4" width="1" height="1" fill="rgba(32, 24, 15, 158)"></rect><rect x="1" y="4" width="1" height="1" fill="rgba(158, 127, 76, 255)"></rect><rect x="2" y="4" width="1" height="1" fill="rgba(101, 86, 55, 255)"></rect><rect x="3" y="4" width="1" height="1" fill="rgba(150, 99, 71, 255)"></rect><rect x="4" y="4" width="1" height="1" fill="rgba(226, 158, 113, 255)"></rect><rect x="5" y="4" width="1" height="1" fill="rgba(218, 158, 113, 255)"></rect><rect x="6" y="4" width="1" height="1" fill="rgba(197, 138, 98, 255)"></rect><rect x="7" y="4" width="1" height="1" fill="rgba(167, 112, 80, 255)"></rect><rect x="8" y="4" width="1" height="1" fill="rgba(179, 128, 92, 255)"></rect><rect x="9" y="4" width="1" height="1" fill="rgba(205, 146, 103, 255)"></rect><rect x="10" y="4" width="1" height="1" fill="rgba(222, 159, 114, 255)"></rect><rect x="11" y="4" width="1" height="1" fill="rgba(210, 156, 112, 255)"></rect><rect x="12" y="4" width="1" height="1" fill="rgba(116, 85, 65, 255)"></rect><rect x="13" y="4" width="1" height="1" fill="rgba(87, 71, 47, 255)"></rect><rect x="14" y="4" width="1" height="1" fill="rgba(129, 97, 53, 255)"></rect><rect x="15" y="4" width="1" height="1" fill="rgba(23, 16, 8, 158)"></rect><rect x="0" y="5" width="1" height="1" fill="rgba(21, 16, 11, 158)"></rect><rect x="1" y="5" width="1" height="1" fill="rgba(127, 101, 59, 255)"></rect><rect x="2" y="5" width="1" height="1" fill="rgba(129, 103, 54, 255)"></rect><rect x="3" y="5" width="1" height="1" fill="rgba(72, 41, 19, 255)"></rect><rect x="4" y="5" width="1" height="1" fill="rgba(92, 37, 22, 255)"></rect><rect x="5" y="5" width="1" height="1" fill="rgba(166, 112, 78, 255)"></rect><rect x="6" y="5" width="1" height="1" fill="rgba(160, 120, 92, 255)"></rect><rect x="7" y="5" width="1" height="1" fill="rgba(191, 147, 107, 255)"></rect><rect x="8" y="5" width="1" height="1" fill="rgba(202, 154, 113, 255)"></rect><rect x="9" y="5" width="1" height="1" fill="rgba(167, 125, 94, 255)"></rect><rect x="10" y="5" width="1" height="1" fill="rgba(138, 104, 75, 255)"></rect><rect x="11" y="5" width="1" height="1" fill="rgba(42, 11, 13, 255)"></rect><rect x="12" y="5" width="1" height="1" fill="rgba(34, 19, 8, 255)"></rect><rect x="13" y="5" width="1" height="1" fill="rgba(99, 74, 34, 255)"></rect><rect x="14" y="5" width="1" height="1" fill="rgba(84, 61, 31, 255)"></rect><rect x="15" y="5" width="1" height="1" fill="rgba(18, 13, 8, 158)"></rect><rect x="0" y="6" width="1" height="1" fill="rgba(24, 21, 11, 158)"></rect><rect x="1" y="6" width="1" height="1" fill="rgba(105, 84, 45, 255)"></rect><rect x="2" y="6" width="1" height="1" fill="rgba(106, 82, 44, 255)"></rect><rect x="3" y="6" width="1" height="1" fill="rgba(87, 69, 39, 255)"></rect><rect x="4" y="6" width="1" height="1" fill="rgba(13, 0, 0, 255)"></rect><rect x="5" y="6" width="1" height="1" fill="rgba(126, 101, 58, 255)"></rect><rect x="6" y="6" width="1" height="1" fill="rgba(151, 124, 83, 255)"></rect><rect x="7" y="6" width="1" height="1" fill="rgba(112, 99, 75, 255)"></rect><rect x="8" y="6" width="1" height="1" fill="rgba(98, 86, 64, 255)"></rect><rect x="9" y="6" width="1" height="1" fill="rgba(81, 67, 40, 255)"></rect><rect x="10" y="6" width="1" height="1" fill="rgba(58, 43, 18, 255)"></rect><rect x="11" y="6" width="1" height="1" fill="rgba(0, 0, 0, 255)"></rect><rect x="12" y="6" width="1" height="1" fill="rgba(48, 35, 19, 255)"></rect><rect x="13" y="6" width="1" height="1" fill="rgba(77, 55, 27, 255)"></rect><rect x="14" y="6" width="1" height="1" fill="rgba(92, 69, 35, 255)"></rect><rect x="15" y="6" width="1" height="1" fill="rgba(19, 15, 8, 158)"></rect><rect x="0" y="7" width="1" height="1" fill="rgba(34, 27, 18, 158)"></rect><rect x="1" y="7" width="1" height="1" fill="rgba(94, 71, 40, 255)"></rect><rect x="2" y="7" width="1" height="1" fill="rgba(131, 98, 55, 255)"></rect><rect x="3" y="7" width="1" height="1" fill="rgba(133, 106, 67, 255)"></rect><rect x="4" y="7" width="1" height="1" fill="rgba(25, 23, 12, 255)"></rect><rect x="5" y="7" width="1" height="1" fill="rgba(119, 94, 54, 255)"></rect><rect x="6" y="7" width="1" height="1" fill="rgba(160, 123, 71, 255)"></rect><rect x="7" y="7" width="1" height="1" fill="rgba(85, 67, 44, 255)"></rect><rect x="8" y="7" width="1" height="1" fill="rgba(31, 23, 8, 255)"></rect><rect x="9" y="7" width="1" height="1" fill="rgba(91, 63, 28, 255)"></rect><rect x="10" y="7" width="1" height="1" fill="rgba(97, 69, 36, 255)"></rect><rect x="11" y="7" width="1" height="1" fill="rgba(29, 27, 15, 255)"></rect><rect x="12" y="7" width="1" height="1" fill="rgba(47, 28, 15, 255)"></rect><rect x="13" y="7" width="1" height="1" fill="rgba(108, 76, 41, 255)"></rect><rect x="14" y="7" width="1" height="1" fill="rgba(104, 81, 43, 255)"></rect><rect x="15" y="7" width="1" height="1" fill="rgba(13, 10, 5, 158)"></rect><rect x="0" y="8" width="1" height="1" fill="rgba(36, 27, 18, 158)"></rect><rect x="1" y="8" width="1" height="1" fill="rgba(103, 84, 55, 255)"></rect><rect x="2" y="8" width="1" height="1" fill="rgba(97, 77, 51, 255)"></rect><rect x="3" y="8" width="1" height="1" fill="rgba(115, 89, 54, 255)"></rect><rect x="4" y="8" width="1" height="1" fill="rgba(62, 46, 21, 255)"></rect><rect x="5" y="8" width="1" height="1" fill="rgba(84, 60, 33, 255)"></rect><rect x="6" y="8" width="1" height="1" fill="rgba(12, 1, 1, 255)"></rect><rect x="7" y="8" width="1" height="1" fill="rgba(42, 32, 20, 255)"></rect><rect x="8" y="8" width="1" height="1" fill="rgba(29, 23, 11, 255)"></rect><rect x="9" y="8" width="1" height="1" fill="rgba(68, 45, 19, 255)"></rect><rect x="10" y="8" width="1" height="1" fill="rgba(80, 56, 28, 255)"></rect><rect x="11" y="8" width="1" height="1" fill="rgba(30, 25, 16, 255)"></rect><rect x="12" y="8" width="1" height="1" fill="rgba(41, 27, 13, 255)"></rect><rect x="13" y="8" width="1" height="1" fill="rgba(85, 58, 31, 255)"></rect><rect x="14" y="8" width="1" height="1" fill="rgba(94, 72, 39, 255)"></rect><rect x="15" y="8" width="1" height="1" fill="rgba(16, 11, 6, 158)"></rect><rect x="0" y="9" width="1" height="1" fill="rgba(24, 16, 3, 158)"></rect><rect x="1" y="9" width="1" height="1" fill="rgba(135, 117, 90, 255)"></rect><rect x="2" y="9" width="1" height="1" fill="rgba(142, 140, 137, 255)"></rect><rect x="3" y="9" width="1" height="1" fill="rgba(73, 58, 30, 255)"></rect><rect x="4" y="9" width="1" height="1" fill="rgba(28, 15, 0, 255)"></rect><rect x="5" y="9" width="1" height="1" fill="rgba(145, 126, 102, 255)"></rect><rect x="6" y="9" width="1" height="1" fill="rgba(107, 101, 98, 255)"></rect><rect x="7" y="9" width="1" height="1" fill="rgba(5, 1, 0, 255)"></rect><rect x="8" y="9" width="1" height="1" fill="rgba(44, 33, 15, 255)"></rect><rect x="9" y="9" width="1" height="1" fill="rgba(79, 63, 39, 255)"></rect><rect x="10" y="9" width="1" height="1" fill="rgba(48, 39, 27, 255)"></rect><rect x="11" y="9" width="1" height="1" fill="rgba(0, 0, 0, 255)"></rect><rect x="12" y="9" width="1" height="1" fill="rgba(60, 46, 23, 255)"></rect><rect x="13" y="9" width="1" height="1" fill="rgba(115, 85, 45, 255)"></rect><rect x="14" y="9" width="1" height="1" fill="rgba(115, 86, 46, 255)"></rect><rect x="15" y="9" width="1" height="1" fill="rgba(13, 10, 5, 158)"></rect><rect x="0" y="10" width="1" height="1" fill="rgba(19, 15, 8, 158)"></rect><rect x="1" y="10" width="1" height="1" fill="rgba(121, 94, 55, 255)"></rect><rect x="2" y="10" width="1" height="1" fill="rgba(118, 107, 87, 255)"></rect><rect x="3" y="10" width="1" height="1" fill="rgba(74, 58, 33, 255)"></rect><rect x="4" y="10" width="1" height="1" fill="rgba(44, 26, 0, 255)"></rect><rect x="5" y="10" width="1" height="1" fill="rgba(173, 150, 113, 255)"></rect><rect x="6" y="10" width="1" height="1" fill="rgba(213, 212, 212, 255)"></rect><rect x="7" y="10" width="1" height="1" fill="rgba(24, 21, 16, 255)"></rect><rect x="8" y="10" width="1" height="1" fill="rgba(32, 18, 0, 255)"></rect><rect x="9" y="10" width="1" height="1" fill="rgba(96, 80, 61, 255)"></rect><rect x="10" y="10" width="1" height="1" fill="rgba(96, 90, 82, 255)"></rect><rect x="11" y="10" width="1" height="1" fill="rgba(2, 1, 0, 255)"></rect><rect x="12" y="10" width="1" height="1" fill="rgba(78, 62, 32, 255)"></rect><rect x="13" y="10" width="1" height="1" fill="rgba(83, 55, 30, 255)"></rect><rect x="14" y="10" width="1" height="1" fill="rgba(63, 41, 21, 255)"></rect><rect x="15" y="10" width="1" height="1" fill="rgba(18, 15, 8, 158)"></rect><rect x="0" y="11" width="1" height="1" fill="rgba(29, 24, 18, 158)"></rect><rect x="1" y="11" width="1" height="1" fill="rgba(152, 116, 68, 255)"></rect><rect x="2" y="11" width="1" height="1" fill="rgba(140, 101, 51, 255)"></rect><rect x="3" y="11" width="1" height="1" fill="rgba(66, 55, 32, 255)"></rect><rect x="4" y="11" width="1" height="1" fill="rgba(29, 23, 12, 255)"></rect><rect x="5" y="11" width="1" height="1" fill="rgba(147, 116, 63, 255)"></rect><rect x="6" y="11" width="1" height="1" fill="rgba(193, 186, 177, 255)"></rect><rect x="7" y="11" width="1" height="1" fill="rgba(30, 29, 26, 255)"></rect><rect x="8" y="11" width="1" height="1" fill="rgba(34, 21, 3, 255)"></rect><rect x="9" y="11" width="1" height="1" fill="rgba(133, 111, 79, 255)"></rect><rect x="10" y="11" width="1" height="1" fill="rgba(98, 81, 58, 255)"></rect><rect x="11" y="11" width="1" height="1" fill="rgba(10, 7, 4, 255)"></rect><rect x="12" y="11" width="1" height="1" fill="rgba(53, 42, 21, 255)"></rect><rect x="13" y="11" width="1" height="1" fill="rgba(96, 70, 37, 255)"></rect><rect x="14" y="11" width="1" height="1" fill="rgba(100, 75, 41, 255)"></rect><rect x="15" y="11" width="1" height="1" fill="rgba(24, 19, 11, 158)"></rect><rect x="0" y="12" width="1" height="1" fill="rgba(17, 15, 10, 102)"></rect><rect x="1" y="12" width="1" height="1" fill="rgba(101, 78, 43, 255)"></rect><rect x="2" y="12" width="1" height="1" fill="rgba(170, 131, 78, 255)"></rect><rect x="3" y="12" width="1" height="1" fill="rgba(137, 109, 70, 255)"></rect><rect x="4" y="12" width="1" height="1" fill="rgba(29, 20, 7, 255)"></rect><rect x="5" y="12" width="1" height="1" fill="rgba(132, 102, 51, 255)"></rect><rect x="6" y="12" width="1" height="1" fill="rgba(148, 135, 123, 255)"></rect><rect x="7" y="12" width="1" height="1" fill="rgba(41, 42, 41, 255)"></rect><rect x="8" y="12" width="1" height="1" fill="rgba(30, 20, 5, 255)"></rect><rect x="9" y="12" width="1" height="1" fill="rgba(107, 79, 40, 255)"></rect><rect x="10" y="12" width="1" height="1" fill="rgba(100, 71, 33, 255)"></rect><rect x="11" y="12" width="1" height="1" fill="rgba(16, 12, 6, 255)"></rect><rect x="12" y="12" width="1" height="1" fill="rgba(81, 62, 33, 255)"></rect><rect x="13" y="12" width="1" height="1" fill="rgba(122, 93, 49, 255)"></rect><rect x="14" y="12" width="1" height="1" fill="rgba(81, 59, 31, 255)"></rect><rect x="15" y="12" width="1" height="1" fill="rgba(7, 5, 2, 104)"></rect><rect x="0" y="13" width="1" height="1" fill="rgba(0, 0, 0, 0)"></rect><rect x="1" y="13" width="1" height="1" fill="rgba(77, 77, 51, 10)"></rect><rect x="2" y="13" width="1" height="1" fill="rgba(107, 84, 48, 121)"></rect><rect x="3" y="13" width="1" height="1" fill="rgba(74, 57, 33, 238)"></rect><rect x="4" y="13" width="1" height="1" fill="rgba(54, 40, 21, 255)"></rect><rect x="5" y="13" width="1" height="1" fill="rgba(174, 133, 69, 255)"></rect><rect x="6" y="13" width="1" height="1" fill="rgba(153, 126, 89, 255)"></rect><rect x="7" y="13" width="1" height="1" fill="rgba(31, 34, 35, 255)"></rect><rect x="8" y="13" width="1" height="1" fill="rgba(24, 16, 4, 255)"></rect><rect x="9" y="13" width="1" height="1" fill="rgba(107, 72, 39, 255)"></rect><rect x="10" y="13" width="1" height="1" fill="rgba(144, 108, 60, 255)"></rect><rect x="11" y="13" width="1" height="1" fill="rgba(30, 23, 13, 255)"></rect><rect x="12" y="13" width="1" height="1" fill="rgba(52, 41, 21, 239)"></rect><rect x="13" y="13" width="1" height="1" fill="rgba(50, 33, 15, 122)"></rect><rect x="14" y="13" width="1" height="1" fill="rgba(26, 26, 0, 10)"></rect><rect x="15" y="13" width="1" height="1" fill="rgba(0, 0, 0, 0)"></rect><rect x="0" y="14" width="1" height="1" fill="rgba(0, 0, 0, 0)"></rect><rect x="1" y="14" width="1" height="1" fill="rgba(0, 0, 0, 0)"></rect><rect x="2" y="14" width="1" height="1" fill="rgba(0, 0, 0, 0)"></rect><rect x="3" y="14" width="1" height="1" fill="rgba(0, 0, 0, 0)"></rect><rect x="4" y="14" width="1" height="1" fill="rgba(18, 16, 8, 97)"></rect><rect x="5" y="14" width="1" height="1" fill="rgba(126, 101, 59, 223)"></rect><rect x="6" y="14" width="1" height="1" fill="rgba(155, 121, 72, 255)"></rect><rect x="7" y="14" width="1" height="1" fill="rgba(47, 37, 23, 255)"></rect><rect x="8" y="14" width="1" height="1" fill="rgba(37, 29, 15, 255)"></rect><rect x="9" y="14" width="1" height="1" fill="rgba(99, 71, 37, 255)"></rect><rect x="10" y="14" width="1" height="1" fill="rgba(80, 57, 29, 223)"></rect><rect x="11" y="14" width="1" height="1" fill="rgba(13, 8, 5, 97)"></rect><rect x="12" y="14" width="1" height="1" fill="rgba(0, 0, 0, 0)"></rect><rect x="13" y="14" width="1" height="1" fill="rgba(0, 0, 0, 0)"></rect><rect x="14" y="14" width="1" height="1" fill="rgba(0, 0, 0, 0)"></rect><rect x="15" y="14" width="1" height="1" fill="rgba(0, 0, 0, 0)"></rect><rect x="0" y="15" width="1" height="1" fill="rgba(0, 0, 0, 0)"></rect><rect x="1" y="15" width="1" height="1" fill="rgba(0, 0, 0, 0)"></rect><rect x="2" y="15" width="1" height="1" fill="rgba(0, 0, 0, 0)"></rect><rect x="3" y="15" width="1" height="1" fill="rgba(0, 0, 0, 0)"></rect><rect x="4" y="15" width="1" height="1" fill="rgba(0, 0, 0, 0)"></rect><rect x="5" y="15" width="1" height="1" fill="rgba(0, 0, 0, 0)"></rect><rect x="6" y="15" width="1" height="1" fill="rgba(90, 65, 34, 74)"></rect><rect x="7" y="15" width="1" height="1" fill="rgba(51, 39, 25, 218)"></rect><rect x="8" y="15" width="1" height="1" fill="rgba(20, 15, 7, 218)"></rect><rect x="9" y="15" width="1" height="1" fill="rgba(71, 54, 27, 75)"></rect><rect x="10" y="15" width="1" height="1" fill="rgba(0, 0, 0, 0)"></rect><rect x="11" y="15" width="1" height="1" fill="rgba(0, 0, 0, 0)"></rect><rect x="12" y="15" width="1" height="1" fill="rgba(0, 0, 0, 0)"></rect><rect x="13" y="15" width="1" height="1" fill="rgba(0, 0, 0, 0)"></rect><rect x="14" y="15" width="1" height="1" fill="rgba(0, 0, 0, 0)"></rect><rect x="15" y="15" width="1" height="1" fill="rgba(0, 0, 0, 0)"></rect></svg>