<svg width="40" height="40" xmlns="http://www.w3.org/2000/svg" role="img">
 <title>Sketchfab</title>

 <g>
  <title>Layer 1</title>
  <rect stroke="null" id="svg_14" height="30" width="30" y="5" x="5" fill="#482816"/>
  <rect id="svg_12" height="7" width="30" y="4.97948" x="5" stroke="null" fill="#46673D"/>
  <g stroke="null">
   <path fill="#8CD79F" stroke="#396849" d="m16.43195,14.60447c0,-0.5879 0.48438,-1.06397 1.08135,-1.06397c0.71183,0 1.2287,0.66725 1.04281,1.34205c-0.06952,0.2539 -0.03174,0.52518 0.10504,0.75188c0.30226,0.50176 0.81913,0.81082 1.49394,0.8146c0.66574,-0.00302 1.1879,-0.30831 1.49394,-0.8146c0.13677,-0.22594 0.1738,-0.49722 0.10504,-0.75188c-0.1874,-0.67405 0.32796,-1.34205 1.0413,-1.34205c0.59697,0 1.08135,0.47606 1.08135,1.06397c0,0.51007 -0.36423,0.93248 -0.84407,1.03903c-0.24332,0.05365 -0.4534,0.20327 -0.58186,0.4141c-0.46322,0.7685 0.14584,1.4486 0.70352,2.13322c-0.9151,0.42468 -1.90804,0.63929 -2.99996,0.63929c-1.10931,0 -2.09393,-0.20932 -3.00374,-0.63475c0.56523,-0.69521 1.17505,-1.36245 0.7073,-2.13851c-0.12846,-0.21083 -0.33778,-0.36045 -0.58186,-0.4141c-0.47909,-0.10579 -0.84407,-0.52821 -0.84407,-1.03827zm12.79027,13.67137c0,1.87781 -1.52265,3.40046 -3.40046,3.40046s-3.40046,-1.52265 -3.40046,-3.40046s1.52265,-3.40046 3.40046,-3.40046s3.40046,1.52265 3.40046,3.40046zm-1.6292,-0.66649l-0.52594,-0.52594l-1.59897,1.63902l-0.74886,-0.71032l-0.52594,0.52669l1.27555,1.23701l2.12416,-2.16647zm-6.68304,0.66649c0,-2.70828 2.2035,-4.91178 4.91178,-4.91178l0.12922,0.0068c-0.13451,-0.13224 -0.23803,-0.30075 -0.2675,-0.51611c-0.06952,-0.51158 0.21612,-0.86674 0.57883,-1.00729l1.68512,-0.6544c0.40881,-0.15869 0.61057,-0.61435 0.44886,-1.01712c-0.16096,-0.40277 -0.62342,-0.60075 -1.03299,-0.4413l-1.73348,0.67329c-0.24861,0.09597 -0.55465,0.0272 -0.69974,-0.30302c-0.1398,-0.31964 -0.29924,-0.61662 -0.46851,-0.89772c-1.2952,0.74886 -2.73548,1.13424 -4.30725,1.13424c-1.59671,0 -3.0181,-0.37632 -4.30952,-1.13047c-0.16398,0.27128 -0.31738,0.55768 -0.45415,0.86598c-0.17153,0.38841 -0.4874,0.41712 -0.71107,0.33022l-1.73348,-0.67254c-0.40957,-0.15869 -0.87203,0.03854 -1.03299,0.4413c-0.16171,0.40277 0.03929,0.85843 0.44886,1.01712l1.68512,0.6544c0.37481,0.14509 0.64609,0.52443 0.58412,0.96271c-0.07934,0.57279 -0.51611,0.83954 -0.93248,0.83954l-1.81509,0c-0.44055,0 -0.79722,0.35063 -0.79722,0.78362s0.35667,0.78362 0.79722,0.78362l1.80376,0c0.43224,0 0.87505,0.2811 0.95591,0.79873c0.08463,0.55012 -0.17229,0.9287 -0.5675,1.10477l-1.82869,0.8146c-0.40125,0.17834 -0.57883,0.64307 -0.39748,1.03752s0.65289,0.56901 1.05414,0.39143l1.93524,-0.86145c0.23274,-0.10353 0.51989,-0.0801 0.68085,0.19572c0.7874,1.35641 2.37428,2.72642 4.63445,2.97805c0.63702,-0.07103 1.21359,-0.23803 1.74179,-0.46171c-0.61662,-0.82065 -0.98613,-1.83625 -0.98613,-2.93876z"/>
  </g>
 </g>
</svg>